<svg width="24" height="28" viewBox="0 0 24 28" fill="none" xmlns="http://www.w3.org/2000/svg">
<path d="M8.05618 23.7033H15.9442C15.7866 24.6488 15.304 25.5071 14.582 26.126C13.8601 26.7449 12.9454 27.0845 12.0002 27.0845C11.055 27.0845 10.1403 26.7449 9.41831 26.126C8.69636 25.5071 8.21379 24.6488 8.05618 23.7033ZM12.0002 0.709259C14.6523 0.709259 17.1959 1.77804 19.0713 3.6805C20.9466 5.58295 22.0002 8.16323 22.0002 10.8537V16.2641L23.8908 20.5383C23.9768 20.7337 24.0133 20.9479 23.9969 21.1613C23.9805 21.3747 23.9119 21.5806 23.7972 21.7603C23.6825 21.9399 23.5253 22.0877 23.34 22.1901C23.1548 22.2925 22.9472 22.3463 22.7362 22.3467H1.26951C1.05822 22.3466 0.850297 22.293 0.664669 22.1906C0.479042 22.0882 0.321611 21.9404 0.206711 21.7605C0.0918116 21.5806 0.0230943 21.3744 0.00681653 21.1607C-0.00946121 20.947 0.0272179 20.7326 0.113514 20.5369L2.00018 16.2627V10.8361L2.00685 10.498C2.09806 7.87103 3.19084 5.38257 5.05498 3.55686C6.91912 1.73115 9.40905 0.710735 12.0002 0.710612V0.709259Z" fill="white"/>
</svg>
