<svg width="383" height="335" viewBox="0 0 383 335" fill="none" xmlns="http://www.w3.org/2000/svg">
<g clip-path="url(#clip0_91_1462)">
<rect width="383" height="335" fill="#305CE6"/>
<path opacity="0.36" fill-rule="evenodd" clip-rule="evenodd" d="M0 335V260.669L27.4477 258.181C80.1506 253.404 133.186 253.597 185.853 258.756L200.253 260.167C239.986 264.059 279.298 271.445 317.734 282.237C343.868 289.575 370.413 295.34 397.226 299.502V335H0Z" fill="white" fill-opacity="0.57"/>
<path d="M0 335H397V314.218L334.187 306.844L308.227 300.233C270.304 290.578 231.666 283.987 192.687 280.524C151.307 276.848 109.689 276.711 68.2857 280.114L0 285.726V335Z" fill="#0A2DB0"/>
<path d="M285.56 249.565H282.816V275.504H285.56V249.565Z" fill="#D1B79D"/>
<path d="M285.187 234.433C286.287 243.447 289.263 258.659 297.157 264.42C297.247 264.502 297.31 264.606 297.338 264.719C297.366 264.832 297.359 264.95 297.316 265.06C297.273 265.169 297.197 265.266 297.097 265.338C296.997 265.41 296.876 265.455 296.749 265.467C288.774 265.467 278.699 265.467 271.614 265.529C271.493 265.518 271.378 265.479 271.28 265.414C271.183 265.35 271.105 265.263 271.057 265.163C271.008 265.062 270.99 264.952 271.005 264.843C271.019 264.734 271.065 264.63 271.138 264.543C279.562 256.287 282.687 242.671 283.889 234.433C283.932 234.308 284.018 234.198 284.135 234.12C284.252 234.042 284.393 234 284.538 234C284.683 234 284.824 234.042 284.941 234.12C285.058 234.198 285.144 234.308 285.187 234.433Z" fill="#8C9FFF"/>
<path d="M314.123 256.206H311.065V285.252H314.123V256.206Z" fill="#D1B79D"/>
<path d="M312.594 274.71C321.207 274.71 328.188 269.029 328.188 262.022C328.188 255.015 321.207 249.335 312.594 249.335C303.982 249.335 297 255.015 297 262.022C297 269.029 303.982 274.71 312.594 274.71Z" fill="#00168B"/>
<path d="M312.594 252.591C317.602 252.591 321.662 249.549 321.662 245.796C321.662 242.043 317.602 239 312.594 239C307.586 239 303.527 242.043 303.527 245.796C303.527 249.549 307.586 252.591 312.594 252.591Z" fill="#00168B"/>
</g>
<path fill-rule="evenodd" clip-rule="evenodd" d="M72.0158 230.79H40C40.0985 227.481 42.8121 224.828 46.1451 224.828C47.33 224.828 48.4365 225.163 49.3752 225.744C49.838 222.282 52.8031 219.612 56.3918 219.612C59.9738 219.612 62.9344 222.272 63.4057 225.725C64.1662 225.388 65.0078 225.201 65.893 225.201C69.1 225.201 71.7335 227.656 72.0158 230.79Z" fill="white"/>
<path fill-rule="evenodd" clip-rule="evenodd" d="M84.5996 202C84.9264 202 85.1914 202.265 85.1914 202.592L85.1914 207.721C85.1914 208.048 84.9264 208.313 84.5996 208.313C84.2728 208.313 84.0078 208.048 84.0078 207.721L84.0078 202.592C84.0078 202.265 84.2728 202 84.5996 202Z" fill="#FFD02B"/>
<path fill-rule="evenodd" clip-rule="evenodd" d="M99 216.006C99 216.333 98.735 216.598 98.4082 216.598H93.2793C92.9524 216.598 92.6875 216.333 92.6875 216.006C92.6875 215.679 92.9524 215.414 93.2793 215.414H98.4082C98.735 215.414 99 215.679 99 216.006Z" fill="#FFD02B"/>
<path fill-rule="evenodd" clip-rule="evenodd" d="M75.3281 216.006C75.3281 216.333 75.0631 216.598 74.7363 216.598L69.6074 216.598C69.2805 216.598 69.0156 216.333 69.0156 216.006C69.0156 215.679 69.2805 215.414 69.6074 215.414L74.7363 215.414C75.0631 215.414 75.3281 215.679 75.3281 216.006Z" fill="#FFD02B"/>
<path fill-rule="evenodd" clip-rule="evenodd" d="M91.622 204.663C91.9051 204.827 92.002 205.188 91.8386 205.471L90.0632 208.547C89.8998 208.83 89.5379 208.927 89.2548 208.763C88.9718 208.6 88.8748 208.238 89.0382 207.955L90.8136 204.88C90.977 204.597 91.339 204.5 91.622 204.663Z" fill="#FFD02B"/>
<path fill-rule="evenodd" clip-rule="evenodd" d="M77.1828 204.663C76.8997 204.827 76.8028 205.188 76.9662 205.471L78.7416 208.547C78.905 208.83 79.2669 208.927 79.55 208.763C79.833 208.6 79.93 208.238 79.7666 207.955L77.9912 204.88C77.8278 204.597 77.4659 204.5 77.1828 204.663Z" fill="#FFD02B"/>
<path fill-rule="evenodd" clip-rule="evenodd" d="M88.2296 223.601C87.9465 223.764 87.8495 224.126 88.0129 224.409L89.7883 227.484C89.9518 227.767 90.3137 227.864 90.5967 227.701C90.8798 227.537 90.9768 227.175 90.8134 226.892L89.038 223.817C88.8745 223.534 88.5126 223.437 88.2296 223.601Z" fill="#FFD02B"/>
<path fill-rule="evenodd" clip-rule="evenodd" d="M72.5384 209.776C72.375 210.059 72.472 210.421 72.755 210.585L75.8301 212.36C76.1131 212.524 76.4751 212.427 76.6385 212.144C76.8019 211.861 76.7049 211.499 76.4219 211.335L73.3468 209.56C73.0637 209.396 72.7018 209.493 72.5384 209.776Z" fill="#FFD02B"/>
<path fill-rule="evenodd" clip-rule="evenodd" d="M91.5743 220.653C91.4109 220.936 91.5079 221.298 91.791 221.462L94.866 223.237C95.1491 223.401 95.511 223.304 95.6744 223.021C95.8379 222.738 95.7409 222.376 95.4578 222.212L92.3828 220.437C92.0997 220.273 91.7378 220.37 91.5743 220.653Z" fill="#FFD02B"/>
<path fill-rule="evenodd" clip-rule="evenodd" d="M96.266 209.776C96.4294 210.059 96.3324 210.421 96.0494 210.585L92.9743 212.36C92.6913 212.524 92.3293 212.427 92.1659 212.144C92.0025 211.861 92.0995 211.499 92.3825 211.335L95.4576 209.56C95.7406 209.396 96.1026 209.493 96.266 209.776Z" fill="#FFD02B"/>
<path fill-rule="evenodd" clip-rule="evenodd" d="M76.5677 220.653C76.7312 220.936 76.6342 221.298 76.3511 221.462L73.2761 223.237C72.993 223.401 72.6311 223.304 72.4677 223.021C72.3042 222.738 72.4012 222.376 72.6843 222.212L75.7593 220.437C76.0424 220.273 76.4043 220.37 76.5677 220.653Z" fill="#FFD02B"/>
<path fill-rule="evenodd" clip-rule="evenodd" d="M80.575 223.601C80.8581 223.764 80.955 224.126 80.7916 224.409L79.0162 227.484C78.8528 227.767 78.4909 227.864 78.2078 227.701C77.9248 227.537 77.8278 227.175 77.9912 226.892L79.7666 223.817C79.93 223.534 80.292 223.437 80.575 223.601Z" fill="#FFD02B"/>
<path fill-rule="evenodd" clip-rule="evenodd" d="M84.5996 224.094C84.9264 224.094 85.1914 224.359 85.1914 224.686L85.1914 229.814C85.1914 230.141 84.9264 230.406 84.5996 230.406C84.2728 230.406 84.0078 230.141 84.0078 229.814L84.0078 224.686C84.0078 224.359 84.2728 224.094 84.5996 224.094Z" fill="#FFD02B"/>
<circle cx="84.0079" cy="216.11" r="7.05516" fill="#FFD02B"/>
</svg>
