<svg width="398" height="124" viewBox="0 0 398 124" fill="none" xmlns="http://www.w3.org/2000/svg">
<path d="M72.1756 37.7121V35.3661H75.9743V23.5774H72.1756V15.7183C72.1756 7.04964 65.3607 0 56.9807 0H18.9936C10.6136 0 3.79871 7.04964 3.79871 15.7183V23.5774H0V35.3661H3.79871V37.7121C1.34095 40.5805 -0.0099302 44.2846 0.00379844 48.1175L0.018994 62.8849C0.0227927 65.7652 1.55367 68.2644 3.79871 69.628V74.6618C3.79871 75.704 4.19893 76.7035 4.91133 77.4404C5.62373 78.1773 6.58995 78.5913 7.59743 78.5913H11.3961C12.4036 78.5913 13.3698 78.1773 14.0822 77.4404C14.7946 76.7035 15.1949 75.704 15.1949 74.6618V70.7322H60.7794V74.6618C60.7794 75.704 61.1796 76.7035 61.892 77.4404C62.6044 78.1773 63.5707 78.5913 64.5781 78.5913H68.3768C69.3843 78.5913 70.3505 78.1773 71.0629 77.4404C71.7753 76.7035 72.1756 75.704 72.1756 74.6618V69.6555C72.7581 69.3192 73.2957 68.9057 73.7748 68.4255C75.2069 66.9402 75.9971 64.9636 75.9933 62.8652L75.9781 48.094C75.9859 44.2677 74.6324 40.5723 72.1756 37.7121ZM22.7923 7.85913H53.182V15.7183H22.7923V7.85913ZM17.0942 58.9435C15.5825 58.943 14.1329 58.3213 13.0643 57.2151C11.9957 56.109 11.3956 54.609 11.3961 53.0452C11.3966 51.4814 11.9977 49.9819 13.067 48.8765C14.1363 47.7711 15.5863 47.1503 17.098 47.1509C18.6097 47.1514 20.0593 47.7731 21.1279 48.8793C22.1965 49.9854 22.7966 51.4854 22.7961 53.0492C22.7956 54.613 22.1946 56.1125 21.1253 57.2179C20.0559 58.3233 18.6059 58.944 17.0942 58.9435ZM34.1884 39.2957H11.3961V23.5774H34.1884V39.2957ZM58.8801 58.9435C57.3683 58.943 55.9187 58.3213 54.8501 57.2151C53.7815 56.109 53.1815 54.609 53.182 53.0452C53.1825 51.4814 53.7835 49.9819 54.8528 48.8765C55.9221 47.7711 57.3721 47.1503 58.8839 47.1509C60.3956 47.1514 61.8452 47.7731 62.9138 48.8793C63.9824 49.9854 64.5824 51.4854 64.5819 53.0492C64.5814 54.613 63.9804 56.1125 62.9111 57.2179C61.8418 58.3233 60.3918 58.944 58.8801 58.9435ZM64.5781 39.2957H41.7859V23.5774H64.5781V39.2957Z" fill="white"/>
<path d="M143.562 56.0498C135.223 56.9237 127.56 57.3606 120.575 57.3606C117.082 57.3606 114.516 56.5567 112.877 54.9488C111.237 53.3409 110.417 50.8243 110.417 47.3988V30.621C110.417 26.9509 111.255 24.2944 112.93 22.6516C114.641 20.9738 117.367 20.1349 121.109 20.1349H140.355V27.4752H123.248C121.109 27.4752 120.04 28.5238 120.04 30.621V47.3988C120.04 48.2027 120.272 48.8494 120.735 49.3387C121.234 49.7931 121.893 50.0203 122.713 50.0203C126.812 50.0203 130.554 49.933 133.94 49.7582V42.1558H126.99V35.8641H143.562V56.0498Z" fill="white"/>
<path d="M177.252 48.9717C177.252 51.5933 176.486 53.6555 174.953 55.1585C173.457 56.6266 171.372 57.3606 168.699 57.3606H156.403C153.73 57.3606 151.627 56.6266 150.095 55.1585C148.598 53.6555 147.85 51.5933 147.85 48.9717V36.9127C147.85 34.2912 148.598 32.2464 150.095 30.7783C151.627 29.2753 153.73 28.5238 156.403 28.5238H168.699C171.372 28.5238 173.457 29.2753 174.953 30.7783C176.486 32.2464 177.252 34.2912 177.252 36.9127V48.9717ZM167.897 37.6992C167.897 36.301 167.184 35.6019 165.758 35.6019H159.343C157.918 35.6019 157.205 36.301 157.205 37.6992V48.1853C157.205 49.5834 157.918 50.2825 159.343 50.2825H165.758C167.184 50.2825 167.897 49.5834 167.897 48.1853V37.6992Z" fill="white"/>
<path d="M230.695 56.0498C222.355 56.9237 214.693 57.3606 207.707 57.3606C204.215 57.3606 201.649 56.5567 200.009 54.9488C198.37 53.3409 197.55 50.8243 197.55 47.3988V30.621C197.55 26.9509 198.388 24.2944 200.063 22.6516C201.773 20.9738 204.5 20.1349 208.242 20.1349H227.487V27.4752H210.38C208.242 27.4752 207.173 28.5238 207.173 30.621V47.3988C207.173 48.2027 207.404 48.8494 207.868 49.3387C208.367 49.7931 209.026 50.0203 209.846 50.0203C213.944 50.0203 217.686 49.933 221.072 49.7582V42.1558H214.123V35.8641H230.695V56.0498Z" fill="white"/>
<path d="M264.385 48.9717C264.385 51.5933 263.619 53.6555 262.086 55.1585C260.589 56.6266 258.504 57.3606 255.831 57.3606H243.536C240.863 57.3606 238.76 56.6266 237.227 55.1585C235.731 53.6555 234.982 51.5933 234.982 48.9717V36.9127C234.982 34.2912 235.731 32.2464 237.227 30.7783C238.76 29.2753 240.863 28.5238 243.536 28.5238H255.831C258.504 28.5238 260.589 29.2753 262.086 30.7783C263.619 32.2464 264.385 34.2912 264.385 36.9127V48.9717ZM255.029 37.6992C255.029 36.301 254.317 35.6019 252.891 35.6019H246.476C245.05 35.6019 244.338 36.301 244.338 37.6992V48.1853C244.338 49.5834 245.05 50.2825 246.476 50.2825H252.891C254.317 50.2825 255.029 49.5834 255.029 48.1853V37.6992Z" fill="white"/>
<path d="M285.752 20.1349H307.136C310.628 20.1349 313.194 20.9214 314.834 22.4943C316.473 24.0323 317.293 26.3916 317.293 29.5724C317.293 31.6696 316.83 33.3824 315.903 34.7106C314.976 36.0039 313.836 36.9127 312.482 37.437C315.368 38.206 317.329 40.0935 318.362 43.0995C318.719 44.1831 318.897 45.4414 318.897 46.8745C318.897 50.3 318.077 52.8166 316.438 54.4245C314.798 56.0324 312.232 56.8363 308.739 56.8363H285.752V20.1349ZM309.274 45.3016C309.274 43.2044 308.205 42.1558 306.066 42.1558H295.375V49.496H306.066C308.205 49.496 309.274 48.4474 309.274 46.3502V45.3016ZM307.67 30.621C307.67 28.5238 306.601 27.4752 304.463 27.4752H295.375V34.8155H304.463C306.601 34.8155 307.67 33.7669 307.67 31.6696V30.621Z" fill="white"/>
<path d="M336.269 49.7582C338.158 49.7582 340.296 49.4086 342.684 48.7096V29.0481H352.039V56.8363H343.753L343.219 54.2148C341.544 55.2983 339.815 56.1023 338.033 56.6266C336.287 57.1159 334.808 57.3606 333.596 57.3606H331.19C328.767 57.3606 326.824 56.6441 325.363 55.211C323.902 53.7779 323.171 51.8729 323.171 49.496V29.0481H332.527V47.9231C332.527 48.4474 332.705 48.8843 333.061 49.2339C333.418 49.5834 333.863 49.7582 334.398 49.7582H336.269Z" fill="white"/>
<path d="M356.297 49.496C363.532 50.0203 369.235 50.2825 373.404 50.2825C373.939 50.2825 374.385 50.1077 374.741 49.7582C375.097 49.4086 375.276 48.9717 375.276 48.4474V46.6123H363.782C361.358 46.6123 359.416 45.8958 357.955 44.4627C356.493 43.0296 355.763 41.1246 355.763 38.7478V36.9127C355.763 34.5358 356.493 32.6309 357.955 31.1978C359.416 29.7647 361.358 29.0481 363.782 29.0481H381.958V35.8641H366.989C366.455 35.8641 366.009 36.0389 365.653 36.3884C365.296 36.7379 365.118 37.1748 365.118 37.6992C365.118 38.2235 365.296 38.6604 365.653 39.0099C366.009 39.3595 366.455 39.5342 366.989 39.5342H376.612C379.035 39.5342 380.978 40.2508 382.439 41.6839C383.9 43.117 384.631 45.022 384.631 47.3988V49.496C384.631 51.8729 383.9 53.7779 382.439 55.211C380.978 56.6441 379.035 57.3606 376.612 57.3606C370.304 57.3606 363.532 57.0111 356.297 56.312V49.496Z" fill="white"/>
<path d="M388.377 48.9717H398V56.8363H388.377V48.9717ZM389.446 45.8259L388.377 34.8155V20.1349H398V34.8155L396.931 45.8259H389.446Z" fill="white"/>
<path d="M117.424 96.8C116.528 100.704 114.576 104.064 111.76 106.08C112.592 106.656 114.096 107.904 114.704 108.576C116.112 107.424 117.328 105.92 118.384 104.192C119.248 105.024 120.048 105.824 120.528 106.432L123.088 103.776C122.352 103.04 121.136 101.952 119.984 100.96C120.432 99.872 120.816 98.688 121.136 97.504L117.424 96.8ZM140.272 105.088C139.088 104 136.88 102.304 135.056 100.896C135.472 99.808 135.824 98.656 136.112 97.472L132.4 96.8C131.76 99.84 130.416 102.688 128.368 104.512C128.208 104.256 128.048 104.032 127.888 103.776V96.608H139.952V92.864H127.888V88.928H123.888V92.864H112.24V96.608H123.888V104C121.104 108.32 116.112 112.288 110.928 114.304C111.76 115.104 113.008 116.64 113.616 117.568C117.424 115.808 121.008 113.024 123.888 109.664V118.784H127.888V109.472C130.768 112.896 134.384 115.776 138.256 117.568C138.896 116.512 140.144 114.88 141.072 114.08C136.272 112.32 131.696 108.928 128.848 105.152C129.744 105.632 130.8 106.336 131.344 106.784C132.144 106.016 132.848 105.088 133.488 104.032C135.088 105.344 136.72 106.752 137.616 107.744L140.272 105.088ZM143.312 101.472V105.6H172.752V101.472H143.312ZM189.296 96.256V113.632H192.464V99.264H200.528V110.4C200.528 110.72 200.432 110.816 200.08 110.816C199.792 110.816 198.864 110.816 198 110.784C198.384 111.52 198.8 112.736 198.928 113.568C200.592 113.568 201.712 113.536 202.608 113.056C203.504 112.576 203.76 111.808 203.76 110.432V96.256H202.256L204.752 95.104C204.208 93.568 202.832 91.232 201.616 89.472L198.736 90.752C199.824 92.48 201.008 94.72 201.552 96.256H198.064V88.896H194.864V96.256H191.216C192.4 94.752 193.52 92.576 194.192 90.528L190.928 89.76C190.32 91.712 189.232 93.664 187.952 95.008C188.496 95.296 189.392 95.776 190.096 96.256H189.296ZM184.24 108.384H188.144V105.184H184.24V101.696H188.496V98.464H183.856V95.52H187.952V92.352H183.856V88.896H180.56V92.352H176.432V95.52H180.56V98.464H175.472V101.696H180.944V110.784C180.4 109.984 179.92 108.992 179.504 107.84C179.6 106.496 179.632 105.12 179.664 103.68L176.528 103.52C176.528 108.864 176.368 113.824 174.608 116.896C175.312 117.312 176.624 118.304 177.136 118.816C178.064 117.152 178.64 115.136 179.024 112.832C181.776 117.28 186.096 118.08 192.336 118.08H203.76C203.984 117.056 204.56 115.456 205.104 114.656C202.608 114.752 194.448 114.752 192.368 114.752C189.072 114.752 186.384 114.56 184.24 113.6V108.384ZM197.2 106.272H195.696V102.976H197.2V106.272ZM199.376 100.768H193.52V109.568H195.696V108.48H199.376V100.768ZM219.728 94.464V101.344H213.744V94.464H219.728ZM229.616 101.344H223.568V94.464H229.616V101.344ZM217.712 114.528C214.192 114.528 213.744 114.112 213.744 111.616V105.056H229.616V106.688H233.584V90.72H209.776V111.584C209.776 116.992 211.632 118.272 217.808 118.272H228.976C234.512 118.272 236.016 116.512 236.72 111.168C235.6 110.944 233.872 110.272 232.88 109.728C232.368 113.728 231.76 114.528 228.624 114.528H217.712ZM268.592 102.24V98.464H256.016V88.96H251.92V98.464H239.6V102.24H251.92V113.536H241.328V117.344H266.896V113.536H256.016V102.24H268.592ZM296.592 94.624L295.824 94.816H287.888V88.928H283.984V94.816H273.072V98.528H293.2C290.224 102.816 285.52 107.712 280.88 111.04C280.368 110.464 279.92 109.824 279.536 109.088C279.888 108.32 280.176 107.648 280.432 107.04L276.592 105.632C275.408 109.152 273.072 113.728 270.736 116.416L274.48 118.752C275.664 116.928 276.784 114.816 277.776 112.832C281.072 117.184 286 118.208 292.496 118.208H299.696C299.888 117.152 300.432 115.328 301.008 114.464C299.12 114.496 294.224 114.528 292.752 114.496C289.52 114.496 286.576 114.24 284.176 113.28C289.968 108.896 295.888 102.432 299.472 96.416L296.592 94.624ZM315.728 100.416H310V97.28H315.76C315.408 97.76 314.992 98.176 314.576 98.56C315.472 99.104 317.008 100.32 317.68 100.992C318.896 99.712 320.016 98.08 320.944 96.192H332.368V92.736H322.416C322.768 91.712 323.088 90.656 323.344 89.6L319.6 88.896C318.992 91.552 317.968 94.112 316.592 96.16V93.76H311.856V88.896H308.208V93.76H303.408V97.28H306.672V102.208C306.672 106.464 306.224 111.904 302.704 116.544C303.632 117.152 304.848 118.112 305.52 118.88C309.072 114.24 309.872 108.736 309.968 103.84H312.272C312.144 111.552 311.984 114.272 311.536 114.944C311.312 115.328 311.024 115.424 310.64 115.424C310.128 115.424 309.296 115.392 308.304 115.296C308.816 116.224 309.168 117.664 309.232 118.688C310.512 118.72 311.76 118.688 312.528 118.56C313.392 118.4 314 118.08 314.608 117.216C315.408 116.032 315.568 112.224 315.728 101.888V100.416ZM330.576 102.112C329.744 103.136 328.528 104.352 327.312 105.408C327.024 104.224 326.768 102.976 326.576 101.728C328.528 100.704 330.32 99.616 331.632 98.528L328.912 96.544C326.064 98.752 320.336 101.088 315.824 101.984C316.624 102.816 317.552 104.224 318.064 105.152L318.736 104.96V118.752H322.352V103.648C322.736 103.488 323.088 103.328 323.472 103.168C324.624 110.048 326.576 115.616 330.8 118.688C331.376 117.664 332.528 116.192 333.392 115.488C331.088 114.016 329.456 111.584 328.336 108.608C329.904 107.456 331.76 105.952 333.264 104.544L330.576 102.112ZM348.368 107.776H351.632L352.496 96.832L352.656 92.064H347.344L347.504 96.832L348.368 107.776ZM350 116.288C351.6 116.288 352.816 115.136 352.816 113.472C352.816 111.776 351.6 110.624 350 110.624C348.4 110.624 347.184 111.776 347.184 113.472C347.184 115.136 348.368 116.288 350 116.288ZM380.368 107.776H383.632L384.496 96.832L384.656 92.064H379.344L379.504 96.832L380.368 107.776ZM382 116.288C383.6 116.288 384.816 115.136 384.816 113.472C384.816 111.776 383.6 110.624 382 110.624C380.4 110.624 379.184 111.776 379.184 113.472C379.184 115.136 380.368 116.288 382 116.288Z" fill="white"/>
</svg>
